<mxfile host="app.diagrams.net" modified="2024-01-10T16:11:12.027Z" agent="Mozilla/5.0 (Windows NT 10.0; Win64; x64) AppleWebKit/537.36 (KHTML, like Gecko) Chrome/120.0.0.0 Safari/537.36" etag="PixuBK30bjlqZe4RnMTE" version="22.1.18" type="device">
  <diagram name="Page-1" id="eBOecXdXh4-LGmxrDSIx">
    <mxGraphModel dx="1434" dy="750" grid="1" gridSize="10" guides="1" tooltips="1" connect="1" arrows="1" fold="1" page="1" pageScale="1" pageWidth="827" pageHeight="1169" math="0" shadow="0">
      <root>
        <mxCell id="0" />
        <mxCell id="1" parent="0" />
        <mxCell id="I24HHL51fHuHuO_ZdVs8-1" value="Single Page Application" style="rounded=0;whiteSpace=wrap;html=1;" vertex="1" parent="1">
          <mxGeometry x="340" y="320" width="120" height="60" as="geometry" />
        </mxCell>
        <mxCell id="I24HHL51fHuHuO_ZdVs8-2" value="" style="shape=image;verticalLabelPosition=bottom;labelBackgroundColor=default;verticalAlign=top;aspect=fixed;imageAspect=0;image=data:image/png,iVBORw0KGgoAAAANSUhEUgAAAPEAAADRCAMAAAAquaQNAAAAVFBMVEX///9h2vtU2PtT2Pv6/v/2/f9r3Ptl2/vk+P647f3y/P/r+v7R8/6+7v3f9/7X9f7G8P2r6v2R5PyE4fx63/yc5vx/4PzN8v6z7P2M4/yg5/y87f1jaLTfAAARKElEQVR4nOUd6YKrrG7EtVqr1ra2ve//nrfbSAJBE1ROz3fyaxZFAiF7ws/PYmi6Wx69Ib91Q7V8RADVgEZvVh3cb0b3SKkIgFL5cUhXGTttj7k5eHRfd0WlUB7xjMaJHZdvRuMcu1xh5p5wjYkpfSYWXZdsdLLLKXTfEF9Xw0AG6ck9qddmeBNg2UXTQ5/WOTZCqKbm9MH57DOz5E6SM4Y/cJqr+Vk9IO4S6cAdA9/HagZHeX6HPzOLWtG4w8T5xRAa5Yw5rwfOF/7cygsX3yjKNsSOgCOemXpRonLQY9wxR6V5v6JHV8dNMTRgj6amLtemTH6SsmrvJwprlRWMQSuK9yt16driNXpzxRQQ7zfHU0MO53RB6CTDjUCaIUJ39lsq7lvE7QuEc74yVhPQge+q2v5/nVmzV6dpTSm1T7DKapvR1/DT3NOyGBI4LVqd3BMIDBNDNjZVnOjnGziwWPR5AqC/2InG4WSyoQkG1pnPqsypmA/6WbVbiAkXtGRS94nH9iZtqwu9J0lvPphN0cNdPx1IQh3Ahkw/eTVJO6d4dpEbT6kZNgeePHhjIYGz/uCcPlVau2dLlL3xSNzPWYOAe529sZCA/h5DPAzG/lliytQ6JhncBzRRKC8MhFCMGM9R3wvSG97DGG/LGSOsLhxzX5+WmKPaLAX9Oab9UhtI9eB/BtXHPOZbyRZ9KfTj/E7MNyrMtFX2y7JT4x851+Y4je/08w8vhvEQCVQew/D4YFZhJq1u7PG00hdA0wQUJfDe7Qz+9ETZMLGZFP2CRnqyloAWJrFExztg9FQBOOAbJKI1GReQEHdrg1Yxucf4DaVxZnfG2Za5ZDM9jug9H9D6h9Qix3wZ/yJlQMfx1e11kJFVy221u2VP/Q41pZ6ToFnX9sx6FAyzKqYNhNHvSZmt59nyAS2cPAItLeXIiuVLB5j15uIp0XLBR8Fr7F32WTnI6Lf2Cmi5EHsFvA4myn4GX6nF09YYp3qP/WI/hjXMVixXngYfwOL6fSo1MPYcRetBW8dWK817vOaamMGMzIsqAcZbq5kAY6+pniITvMRLGv0BjL2o2vQCRR761hMCUnW5iGWcyTwHD0URcK6tMU6X7PF6OpeeRrw1r04WsIzBpVe7/fwuqMLJY+0sFqsOyCBWHfpNqr8BRUb4phy0ZSrUDku0q7Xh8BPSpvZLbB+W0LaTkBShXHpZmmiXhTIqpO2k7WMZv4HOvQ93hpxbGPHfBbSPtfdBZMbDENQogaF0lnme7+N72+dGaFqUfAulUeijB1VOUZLDuO4Boua1zwnCyV9aZ0DcTOKI1dyESFFYGTSXFES54F4iSYQkloDt6kls772tPDRaxLUwix+8uBewWbf30Gurha2CQMlrnTsoo9hhCaCABMhJ1a49pkeuoNi0Bh254y9iG1AB+fm5jPPjiacEOj2oCSIfAU9L1sLpIpi5L3RCZo32kDp1iJHzFArNqkOkdLUyJR5aiA4baYDnnHWU9eMevm4xgKwIBp9Eh9h1DGB4hmNGgYhuiKyIHy0ZGLYEPKTuM3cBT+XzR1mLtFgycW/Q9uL8IUJunqIqDoem2Q9D29YPaNth2O+bQ1HB6DJDKndBWTW0JeYYZYLjTMoN8LG4nlNtNEmEybEGCWQkASZlMezut1OuYn5GPFqZOI6y/ti1TUXqFzoTNoBW/YRCe9UMhaHc7+79A1NXMr0QcfVYsqw/7/YGh9QaV5B0rh+oxo+iJG1295OzbGAx5lF2vO5HWt/J5OMKoHWKZz5Sue9uebwJribe/bsO9Db+MUQ21xNANlV9y7bZWBfacd5ffTLKlgHIlg2HLEBb/xSqNiSZmE5YCFM1ULa3+akEgr7e3CFQXcmCpmkAikaWZafT6XLp+1vfX06nx+955NBEeENn3YYSqugyL53iWg9PVXLCW5Gk5UMD3ddXj9EfzKzbpHjgsbssdN96A/yDxKBr4SdOUczbdhVn3drkXTOI+UmV2Us3REYxP4f4CYBHPFTI9NB2x4xD7kqdVtQ4i9kS6Ceufdf+nqgS2rsyfprAVz9aVlIM3S2L5idxX+dID1aplvGhODv+r0HmDtgocUIeNLeQSpUW9XmOj7gK4QQw2cHgBfne4kh716RZAPxitsshOcwUPqt8UfpxyqhwJ/z0wHnpkaUBj4TtDymnCe75SSWv5P9A4u7YABbCNlHvU/9kAGB7tmcMGOfO3VCRH861A9/Hh44DyLwzHSEF2AW/cDaIrVsGsP5fnuzPLqxVJF/qxi4hfqObvcW9TqU3k23AfD2DQtCBbayZzvF5J88fuoxGeqK4lYTyRh6XOLv+4gBCjHg5Idn5GnOd81zo0Ue7qbpm9GRvAh5C5l0pdYbKnH4EbQO0q/wdjZAhoyOpCQjGcg9nugUQl22XZAeDkyFYQYUqpF3Itvy7GTUO5gXo3Uj0a+lJs7a5tV+ltBlQZAUyOCDbWuJZ1R5ilCkHaiat5SQ1Q45Sf7YOhaMNk34AUC8ILixK9YZCGQgDQO3ES+nVFi/xXNJnabFolTkYvY5o6qgv0LYWll7BXgXjdoJAuSOEZXepmOnzVFkF7pmTLEBx/fh5sAdTbCsthrZuh2JqLtRQepFNT7mG1sJ5qjDBLNtQkxsFGih8/lJTG2NC0Z1Gl8fJ7cBoALn8rroefmo9d+Z5dmceNMYRnik1A2zkrfFDyeSyilusMSg3EUFv2vsvA8ksCTCL51zLb+ywOs1Ym0BUvC0kqDjQYoHS5FzaEbAZPqpMPzf8CIUhq+hdNqpj43nNVDPml0hOrSmaYMuB96dofgp26qXJghWez/4wCp6pyHqKnzgxVGItuV8YnsH7lO1iy4HxdbIWFx6S55p05imaBLMTlM0lUZEKs3QBjIm2gDQSp7u2UQsMzcYCNT5hzQ4XZVhkgZKdua4a1AsFcBqKk6IUTAKoXQaysoe6ILOUBOWsmwftgP7JVYiBTnkCP5Pvz7Wpo1YJKDRxpYmQHTVGdaHGW85U0WkARwGMQPGVo+sMj1+l1HD++DS4E12h9SBJGCKsDlofMpv3UCgTgcIDxdwl5QoouQqeVeiLE9l41NSpzTK1Vwqo2ukj9aBkgpCwwQfaGTbrho7QKAi2S9KC9SLBL4k+pELPCvTJ6A+A4yKLmVDOVIqR8rprUszL3mRpoSKQISMDAPWmYqPWiiVTEyKPow0UA6isV4V7AkoctXMBuMvERq3ZGIC0Pu4RD6h3z8YzbqPMBcDi+T2yYJ/knm2DYEkdn9syliJr8yTL3YVAW/2lj+lFnoEazYjc4pRH1I46U7zJPlEOMII5IS/vI54QtcVWfwgXkEZdid/2mCFovvReUpAw7VO9jBqkkkTCkk2v10ndAm6yV881UCX+1q4WVraiGDfJ6ms2xiTJpvADXiE0/fqbiJplGEPGR0sOR2k5gTEtKmY/MAf6A+9ju3CP0633uJz9wBzo1997/EXnmLTL0Tn2Cd5Z57hck1dTe7Aqr/Y4yI3Jq7eXx2yMGfLYI9QBVL7PX0CuyT+icy3Rq01Tn9areZtMvmsaT/IMYy0qRs4IbSfpJvfGhJbYTtQxtm0nab4UZTvBGKhQ4NkT+ivsY1j2vI0PhCWRSR+IvaKr+ED+PT/XX+bLFKR6On2ZK/irwY+b+Kvhj14IG2yiWByTqP6ymIQRd2KyLxR3Akdug7jTce2409fHFqulsUX7KKwQPwZfkMaPKYUaaIfKiB8zeNd8/NjKEZhXOMPlCLxUwbVzBL4uDwSywrd3C+SBzFAgLw9EnOtjUZlPrk/MyfX5qA7GKXKDlevjtD6sfK5ok3yubMznmihIC5LP5Z2zN57DbXL2RjYL0thXytmj7sl04kylDK6Xl3mlyIVKjMRg4zt//+Z6ubdLmpVC5xYwiD1ybxmOrNZ8KSLzq0HZgCO/2s+3/AZYI7YkvzpiZVCQ1zz+nTn0rJuEnkAa8EqdIQoOdWDjOgmg9IC/No46CYF3Iz3S5SX5KE2ctTAwp8T3KiLAtgyFkqiFKbqcnuxRFr8Q1DsZlLNpvVNpiMTV6p2eMFHTdt6DxmqmUfIVNW25X9+unV/d4nnqnwyoHWzrBf9T1CSM2U2qitPgxlnvgsUO0ZWby2pTbauTUZu6AN8n2EqMAVljMQjYA1MulGH9sUWbaTNXf+xWi9nQ9NOF3c/mAUaNOZi0uP04bLqHwg9lUx9nasxV3PvrABAqVh+BWzcUHyKcJsxJcPUR6Of7Bz00wxUbRrTMXhH5sav/VK+ItdsqVsz2J/+VfiAvODy0G27wG8KuHvbTPV+eN4IXh3278xh9+0Y36/X16fvL5fFbBh/4LnTfUNVWzPiPQYDeTS9IfEh7Ewh1q/e/14MN9Nnb9QGaCgJk/1CfPdyStGq7fqO+kRhZpS53o5diiO7VP+g6vlFnL/fX84b9MtWzX+bIpEDyThiMQUtSw2tcPXuiZly9gYHpQ5e5TPVEDXRz+3zf26btzk/M/yt9b/m9jUvjAlxeb2O1q2akjmYkYe6ql7BKlP5xKJr9/tW9+tW++tXBum2HfVN8d/9q0W3L6KIBd7Yd1OIYPco9b532BcA3pH3oXTSBUrRlfehDsC7AuDiPo7sGaKKAXeqkdw2EYF3S2yu2uE9CeovHMhi/xtTxUF9g4s7Q5OvvDBHfC3OY3sNl98JsfuGz190/MO/G8rnDnA1u5lzYu3+W3u9k9KFAObDfeb/T8ju8IGkgiv/SO7z+vXva/r27+Fa4b3EUKfACnO+9b1GL4wV3ah5df+JCyDs117k39UkfKJfwi+9NXedu3AeB7BzcjAUh78bVk5aaLbhbEtrhb77/eJM7rqUHJOgd14suEL/SKH/3PeZAv/tH7qqvFmGMbjz+HcdHvqQe2r0ngFx+rwN0sjD2Ei/agpOzEyEAjL0OUGLm6hA+AgYExHjZOX5AitP0c89RwlE16LvgN9dDhMEvwp8unQYftLfab3HN7laeWdia1Db3WIPAos/uEFW5XjY96GGyuY9eO/Y8NqemsirZ3i0AmlS2d+1p20meMUbU4L9Gklv1IW2n3n+epMb1GkqsdXUB7WOdPC/1PuCCE/yLdN7aE7N9PHXnSU8lVj2U0cKK7OfsBn22liVTcwDctizhkoYYfjB6o/o3kpjboojuUgCRTAGzNpn0UzU0is4ZBc8jgOs7AiTt6X3isy6jU8SndtKoCxU497qAwglGxrgHucKVB2o0HlLzH9wN0xZYiNtxr1KKMiga8WXDXmZGGMDJ8i0ik4CuZ2J9Lr0ZSGFxYsho1XMMA73oYS65Budx/uEhwhCbq3Q1FU+Glw+cfy8MpACuwJkjwtLYYEqYWD3N+jnRDDJRQiRF4Ajo9JNWo0yywL2wSvlnTgt4MkyWImyZMLXGe7M4TPW0zpKY/j6VTekV4OgHSWD7wXcvuRsrWJePWkdYQ2c9e3KqN+Ca0UBpmUZhIr0bDVGnPqWiNdbTritQ0bFfARkewNgCoRwm9k1as2IntZdI5Tv7HZRFE0IYfwDyGnVBMjEZbkSSMcPEIfoBq7hvEdIFWpcQGuYv4H448aUu0uRZpTVcL1QyOasTlNVt6f2qunT7Z/Zxkhb1BX92napMJpiq0gtPV4kW2yrakcXFn1HNwX3CVUuA29iVo1FoKIm4lAtCSaZxblx8c5nJvp+7YXqErWMRFhD3lxD4ejhlrrxy1DDlewisPk8Evl7JVgnjZu3pfkxbQUJ1wwH4Rp1vSCh13679HvoSqmDRBJq3viDO6iWzmrwxXuIRWxvKI91QJzovN2qaI7nRSh2D8ywE1d3oRKLi6LiSRzUZjhHW3x6f2qZ8XgaH6+2XieV9167rhynarh9Hv11XsIf/D1D/t9SoJVHTAAAAAElFTkSuQmCC;" vertex="1" parent="1">
          <mxGeometry x="430" y="370" width="57.66" height="50" as="geometry" />
        </mxCell>
        <mxCell id="I24HHL51fHuHuO_ZdVs8-3" value="Actor" style="shape=umlActor;verticalLabelPosition=bottom;verticalAlign=top;html=1;outlineConnect=0;" vertex="1" parent="1">
          <mxGeometry x="70" y="320" width="30" height="60" as="geometry" />
        </mxCell>
        <mxCell id="I24HHL51fHuHuO_ZdVs8-4" value="" style="shape=image;verticalLabelPosition=bottom;labelBackgroundColor=default;verticalAlign=top;aspect=fixed;imageAspect=0;image=data:image/png,iVBORw0KGgoAAAANSUhEUgAAAOEAAADhCAMAAAAJbSJIAAAAh1BMVEX////+/v5CQUUzMzX///1CQkSnp6jW1tjX19czMzM5OTt6enwwMDN3d3mqqqvS0tQ7Ozzw8PBFRUfHx8f39/e5ubvj4+MuLjAyMTexsbE9PT0vLy5KSkqdnZ02NjmDg4RiYmRZWVlvb3AlJClQUFDDw8WSkpQrKjBFRUQiIiXe3t+Hh4YjISiP2gWuAAAF10lEQVR4nO2dC3eiOhSFw8QUiC/AgIqK2ve18/9/3z0JWDttHYsXDqV3f8vW1QpstgknOQGCEAAAAAAAAAAAAAAAAAAAAAAAAAAAAAAAAAAAACCEJzzL8b093igxO7SiP1aulBQmSCc3HEzSwAh+h2a5zwtZcCCLfL803A7j8SpXv7h4zlfjmNEdVZhYaqWiVRiGK9kupBCuSEzLmLGmemYcKVXs0mkwDfx2CYJgmu4KpfIxW0Wlb3K5Usk8ZTwy0nmiVkuuQvQ8s8+VTq0evQbtUqmkhcr3hsuhCLSKdqJq61t2WLX5YhcpHTA1++4LDdmqjJOkAyNURcrmcCJVOGV2OA2VnLB13W6oDLlqTAkdGVSGN2xq3TnkrKWBYLRISgFjLaUylJ2UoeQrw8oha6SBw0bl4LAFSThsWA4OW5CEw4bl4LAFSThsWA4OW5CEw4bl4LAFSThsWA4OW5CEw4bl4LAFSThsWA4OW5CEw4bl4LAFSThsWA4OW5CEw4bl4LAFSThsWA4OW5CEw4bl4LAFSThsWA4OW5CEw4bl4LAFSThsWA4OW5DsxuHxhgsGhOimDBkdopY2LPc/upKdEVaH7p4ZVYykHHFBUlaS656Z0mEHMDvUOoo0F1aK3eHtkJdbboeFz6ZW4hes965d01q4kDh47SbU1exBi0+uqpux6b32uv1waETmZoHIRN1blvvi0MvWUhZSrrOfWoZiunJzQKxq30PM7HAgUlIrb8evdSOpF4/dPBPjuM5KQpQ35I+cZv3dvYKBmGmltxQw6mWItHtxYIlrJl6uDIekOeNy6Jk19WmmombQ947zBHn1KqmT8alPs46ZEjZq0zZz0juIenX0zcK15kSyix7WKplvuFLSgaGgqFT0vMlMHY+vB22to5eWNNnmOaKvNPOYZjdx2doTxcTF3dNisfj79DIj96p+vf/k9PF5SOHpbkFqTy4jZXIojJitqfedUEqTt5wy2e2TTrGeCbbJosqwmG3DeUhJzaUUKqL6paJPFqP/2U8urk8vUtpmZQDmcujIltvheDi+wHCfq+j2s8WGt5HK95c3MB5ul9mxfWF06ILFV2LG5GyqZROiyUW1UuLUNn4/zqVax45Y3znbiWUfPmsLOITDb41XRttqQqLPHVbTBn3PGHmRqk05Trn0MZc6OvyurcBXsLt+sQx7bK98m5yZNqt0OPlj2d7hGWOqSGM+ZO6mijS0TD/9eWJZjORosdA2z/oc+kQvFiM5L5Y9LEVPFNH7LOjs37nsm0PXXf4lo4KSp8ilUB+ypOj1E11oqWoO23WO29fD9ssnlrbB61p9oVYT4NVeo1PKMFlnOPTUCTC9aPv/2z72wqEQs8m1zPpwMHregw7Licbr4NYI9UMPynBg7vPnqycmvzeDrg38jTJabKVSF8d5P4HWoBW35pRqvB168v78syPcHjxopUYzf1offzZSSj+8SaboLU4fh8OXpTun+j0cGqWT4vHKDTwWiVbmTRmazfNcUp+nHBH+Hg4fZaJ39gRhzYTBtqEi3ulEPp4cZnv9XA7qK805qn9+Lz177lTd+dfO0y78O+XOg5ZG4l2oVHG3eLqTvGdmzjsUcRKpYnP1PO2etylUlFTniIV9XsD8cWpMtqHaq5LM6zrSeuIlUtrNfn9dEdoZ+7WKXsqYMv0nUVFahtHDOlf2DGnXbclsrlTkX98vofV8SirnMxdlhlF0Oq3hK3eWu2OH2Z6KcOv7/uHKZ1nY9bZUiHsbOOM1mfKPz8847NwR2rHDlzCx6fqoqN/cV40+rUm5fxJSPRUHCjOq7NHRD9UOFaZdOrSx4Xcjz5Sx/BavlxedUGHHA+QU++aNPDxIFvMdfV/Z/buNhSHX9TRnDFJbsZw08QCoyWQZ21ia3bzbmm3zu/NX/mrmK/aqgYIPmM/+yUR5aZa72OmqAYw3QxmnTRy3eqT2ZakAAAAAAAAAAAAAAAAAAAAAAAAAAAAAAAAAAIAfyL86z5xWerr0hgAAAABJRU5ErkJggg==;" vertex="1" parent="1">
          <mxGeometry x="180" y="320" width="60" height="60" as="geometry" />
        </mxCell>
        <mxCell id="I24HHL51fHuHuO_ZdVs8-5" value="Browser" style="text;html=1;align=center;verticalAlign=middle;resizable=0;points=[];autosize=1;strokeColor=none;fillColor=none;" vertex="1" parent="1">
          <mxGeometry x="175" y="380" width="70" height="30" as="geometry" />
        </mxCell>
        <mxCell id="I24HHL51fHuHuO_ZdVs8-8" value="RestFul API" style="rounded=0;whiteSpace=wrap;html=1;" vertex="1" parent="1">
          <mxGeometry x="530" y="320" width="120" height="60" as="geometry" />
        </mxCell>
        <mxCell id="I24HHL51fHuHuO_ZdVs8-9" value="" style="shape=image;verticalLabelPosition=bottom;labelBackgroundColor=default;verticalAlign=top;aspect=fixed;imageAspect=0;image=data:image/png,iVBORw0KGgoAAAANSUhEUgAAAOEAAADhCAMAAAAJbSJIAAAAe1BMVEX///9ssz5lsDJqsjthritosTfb7NG01qOWyHnv9+p5uVBlsDFpsjr9/vzz+fDh79lytkaHwGXn8uHU6Mn5/PdxtkTA3bBfriedy4SjzovG4Ljk8d2w1ZuPxHCp0pPL475+vFmXyHyFv2Kz15+72qrK4r1+vFifzIZarBxV5g2FAAAJRUlEQVR4nO2daXfyKhCABUJqDJoYtbbutXb5/7/wan2tEMNMUAg998zztbFmWGZjGHs9giAIgiAIgiAIgiAIgiAIgiAIgiAIgiAIgiAIgvj/UiyeHuKwWMYWAaJ4kfOcP0Y+Z5u/KuRyLSXzgODqpYotTAPDlfAi3w989hRbnhtG+1x4E/A4j/l6Glskk2rmbwLP8MEotlA61cC3gIzJ3R8ScTj2L+BxFt9iy3XliQcQ8CjiR2zBLoykTyVzRcyGsUX7x0uYKTxO4iq2aGeKJJCAjOVZbOFODNch1MwZ+RJbuhPbcFPIWJLGFq/Xmw5UQAnlOL6yWeUBBTzuxOfYAlYsjKW4IMrYnk0/nJo5wzdxBSzmgQVk7DuuxdiFVDNn5DqmgM8hLcWFZBJPwNHAWc0o5f6Rfbxg2NVSCC52+xl3VU5JNItRCbf5kLOPk+pPx45rW5SxlI1j3Cs/L6tt4ygij+SeTtzWqCivKULXnAAvokj46WYp9GAvdTQycSyGq6WQeibbVQnPI1iMzNEhFQNdXbjGlGLQvcV4RVMX5giYEtbcWVwp550nwQtkJwkuS8W1F7dLKDgrS479v7LrowxkmUm2Kqriqbw+ZZVQssMyq7afyJro2mJs4ffJ92dxplezYJPw10pukDBFdmsxYO8yeb08Ny0vD1ok1PyVLQf/qRp0KeABMvaCv1+fXFwm2yKhYSVn4GZMFp3J18vAJDc/aI9Wl0m0SJjray8Fs1pdWowvaBfOjUjgN8CySKgMp7pgkIj5e68jUsibMQXsZS5z2OstwQ0uu7IYkN9cTxxtsX1Yez6FNKrsB5fthwWwRnn9HX7dc6surc3LAdoBshP3dDqzLyRVP5q+HktZ7eGuFt6+ASKqz+DiHVkBb1A7ZsjGV6ti92mk+aEpFJV1kQLPgI2SmO5xWurep90vTQ7mxwBjK2R4i/FiVzNqYByjTAwDDsQWhotwZANt9OApcGiAc0MPFGaBDRg9mbHRFAo9eWCLAVVdyLH+ZKUc4kP2vdU/+wwMY2iLAaUulJ6mGNUdMFhCNjcsP+S9JcZg+GZU2tePNMpf+vW9hEho2hnI5KrPkIemUOrCyPg93zyISGhGuFPoxIcHTGhAlkKutaFtqLDBJGRc11NPUHiWhLMYUOrC2B4NFTaohKrU/p4BjhPjr71ATIApFEybwmXDg6iEpr8CmN26WvLHdA9sDqmPa9Pr4RKKUhukCRShGTvCI2DqQj/GzJr0ES6hsdCnYEIjD2IxIEtxXDjaqDb65i0kNKYGLIFQnyGUDRTVMLXXhqJR1beQkCWaRwb5NcdJDFDTV4AZUt13ThufbCOhbumQekDp/9AUPvLTg+/mALKNhPoh2hBOEEvvBcSQpTihra9xo5JoI6FxnI0cwPm2GFP4+0R53fkWjdRGQpan6CMXlOeavnf4RFtXNEXzWLSTUIv235GjGr8pcKxwRg/aJs1v1kpC+XV9BIovTvgts8GKEvQ3s6j5dhJqqmaCHRNLn9W1oJfIzOyJJRfXSkJ9taeYhD7r3IdYYYH+Za/Nb9ZKQqHlQ9F6DWVkTR4DjGV+JNQ0xEMSatk6VEKfZ1EF8l2GS2OT0EjfN9vM40tfH8ElnPnza/Atge9DI9do8+LVzkFCNvOXWEQl1KNDW5ClJxttxy/61kJ1KWP+btOiw9nCHuqb1Zrv0W+QfGAFO8LjHC6R7zLG3j4c+eGsGibWSFPfz+iFOJ9l/HDwy0wdmNkfzsdPabp4k/Yx0PYqZoMN0/IwUIbm58t0tQbkOhVPktz+5kIPUbDv9JvfRxxv04OCjo5gDFcTrV716novUXOhmXzoeAr5L5rRqbCbHJ4r3bBqSd1lHn3ee1FIP0JeoMvGb6EbWGBygmsP44WZzaidtkgtrpH2jZ4PErGbsHpSYXnnPRP9nHSIqW/v2bYRsmiMg+o7r3vpJy5gXQ071dx6T3sjBtg41cNerxkj3sMUcu6/jA9bNome+7rnarBQmouCaSvdRfcGotyMo5l7dqJRqoJdLuZBiqPgiRFCj9bc786adQ6W+PFXwDAl0QW89Ixt5Nwpw3DYsHDNZ+xrANs58/5VhWn7GqYLhoxPsEJTpP+FWa4EHnHeCmhYN8Tv0zPsnjnAb50bXsbiu72AuRkmIDeq5gErauCcW+3+1XPrvkq5qTiQgZT7XjisGYoztXKlhWp3RS3fGP4JdsU/7MULxGLUdJxRfmn9UG4WXw4Rny/w5RnEYtTvCY72CbZSuaoZ7yd4jQazFBc2sJpL6uWfzwxc2DJ/relF7BCoVm7rHywpxetlytlGWm/7yKRfPz/K4KtBZgwZBuTqqMhvzryWX4137wQX6xvvcoRdve2i/QDSj0aoW1WXHfaS6zlEITkvV7cPTjFnr5MLwVhCQ7Gmk8vs43Uv58kP82Tw9tyk8qc7LP+RdHJrBovglbL5HFkxmWwnaWUJz0do576OWrlU2GmikHfdiihQ6ym66qUI3Sk5k2zcNd5CoB5QZy2VWrQ0yceOG2b4hXuxHTY52eKZJpk4VWNPVIsc67y71matIvh83/qFqhfEzp8HrctemK3aQ0n51uqQdrQqWyXJ5532cGmX85X8C410stWszQR23vQra9l8R873C2Doh5N+0k6+kKmLZsALETqK8/Vi2fR21eTFoaNSgCQ3DHirpYbkbPdySKtsNB0emU5HWfr8ui+5Q2fXUOX5AG4tL5XME1Xuxut+f73eD1ieS7emX7chS3jczyaEUvLIHQ3N4nSKQo+hfZJE6Q95f0WCMyGvqwGMAjf2vCIGkfq0gteEfMKDXhsFGHbQ+fJExO6Xjj3p7pYw4i96vIXuQHsiahfaqoNJFCJqJ+EOLEbwJDeC118maULN4grYcC3dM920pIFAy0AfFDBqn+QfkEPTRxFxOpcaBLUYeeR+5T9kdwRDbek8ddFM64SGO1222QOAWmM9RjeNr1qAFizfy1/4/Y4z+zDK5qb5WzyKIMqm+7azAEGUDf8bauYfrl3WW5B01umyHau534UqviOHFLcsmE91w8voDvct1ZufH+k81QHI1z/xY103pGOBteVugeKs/wfcbQvL933+r2jmTuZ8fPhDRqKJUZE+QhH7550IgiAIgiAIgiAIgiAIgiAIgiAIgiAIgiAIgiAIIij/AYCtimAZlLSyAAAAAElFTkSuQmCC;" vertex="1" parent="1">
          <mxGeometry x="630" y="370" width="50" height="50" as="geometry" />
        </mxCell>
        <mxCell id="I24HHL51fHuHuO_ZdVs8-10" value="" style="shape=cylinder3;whiteSpace=wrap;html=1;boundedLbl=1;backgroundOutline=1;size=15;" vertex="1" parent="1">
          <mxGeometry x="730" y="310" width="60" height="80" as="geometry" />
        </mxCell>
        <mxCell id="I24HHL51fHuHuO_ZdVs8-11" value="" style="shape=image;verticalLabelPosition=bottom;labelBackgroundColor=default;verticalAlign=top;aspect=fixed;imageAspect=0;image=data:image/png,iVBORw0KGgoAAAANSUhEUgAAARwAAACxCAMAAAAh3/JWAAAA8FBMVEX///9OsD8+lzk/mjpAnDlDojpCnjlBoDpTtEFJrT1EpTpIqz5EqjxQskFYt0NXtkI+lDlcu0Po6dfy8+UmjB/l5NDt7t7m8+Usnx4woCXg8N/u9+yu16v6/fowpSZAqDc1ky/C5rvN5sey3advvmKLzXYzphn1+fNVuTdJsDaEw36f1ZPX7tRPtitrtWO63rim152dy5qQzYZlu1SGwoFUq0uWypKEv35fr1hyv2p0uXBUtEqVzJFCqzRdtFQ4ni/J4Mlysm6QwY6817pRoUqcxpqAtn2dxYlholmqyZi6zafS2bvk3MyrzKm4z6Ph5cxWzxjuAAAH+ElEQVR4nO2cC1vaSBSGE4uQCwFBESKQsG63iKJY67r1kqKt3e3F3f7/f7OZhMAkmUtswclzZt5fMPM+Z843MxnQtBLRHYoeQYn57VD0CErM769Fj6DE/PGmK3oIpWV8NDkWPYbScnJk9FTpkJmetpq+Kh0i3aNWq2n3DkSPo4z0G6Gchu2fiR5ICZmGakI5ddubiR5K6ZidthrIjmXVg7HowZSM84WblmXbwY3o0ZSLk9NG7AbJsdy3osdTJi6Suonk2HZvIHpE5eHiKFHTatWRnLqykxC6aTRSckI7KrIiTpCblRwrRtlBnJ82WwQ59Z662gn3N42YhRw7keO7U9FjE830tEmWY1m+K/kpq3/UbDYpcizf74sen1DeGUs5jZwcy7dlvm+/mDDlWDKf0GcTIyfHxOVY7qXoMYqiG7pBclJ2UpUT2pF1q/zOMIxc6WTkbPfkDPSTCUlOelmhviPj7c70jZHIwcNcz8qZS9iUh0ZCunRycmS83bmbFJVjSbdT7r7BK6fJlGP9KXq0L8zrZeFkSockx70SPdwXZbYqnAJyLKk+9A11x3HI64ooR6qFdT4xMDlY6TQociTaKPeRm7ScZemQ5ViuNLcXF2Q5LYYc/y/Rg34huhPUcjA5eEt2yHKk6ckXPyPHkuMU0Z/oemSHmFdUOb170QN/Ce7ycowCcrZliPNxoCM5uZZMi/LtBFeCD1kDVDi6bmR3OnFeMeRsvxc99M2j6wQ5y9KJ5WwTce9Fj33THHo/LccCXzrXwaJ0yHnVcshi4tIBfp/cXRQOLa9aBkPOHPh7uLeByZTTYMnZBn7Cuk3cUPKKLWcO+jp56tHkJKXD6jmhHdET2CR3wa/JcT+JnsEGuTVXcnSdlFdsOTXAx88DD5dDbMlsOZBb8lXwq3LmcO9LP5ipZUXKK7qcGqIK9mzeD1dVtnSyLZkqpxbjQv0l3yySYxaXU8sBd6tzE/DkNHlyamDvvGzTzK+rTEt2aiQlGEDXVdfLydGfLwdoXs2CnJxcXvHlAN0HXvpm1k7+CMGVU3VBvoP7UDezdvItmV8583vRE9kAY8+21yLno+iZbICph35mxssrvpwaxDCf+Ykbthwuc4BhfkeUk23JReQAvNR5vZJDzatilfO36KmsH79eX8pZ6cm2ZKPKlQPwBDH21iWnNgf3M6wDz4x/Fk1Ic+d5cuAdrw6jyuHJMQy+m9oc3HuLQUCpnHRLdliVU42Z/yt6MuvmKogrh5NXReTUwO2Rj0M5kR52S87JqRIA97T0zI/lcPKqiJwauLcotws5vJZcpVRLCtGTWTeRmzXJAffJ3KXLwVuyw60aJAfYfdfQo8rRny8H2Efh/kJOnZDm6J69iJxKwhzYW/+FHG6YSynnAJNDaMnLheVUsj7ybirQrpHZcrCuk5NDAKocmy+nIqsc9E9u7LyqUIRAltNNKqdOkqMv86rJVwNPzjKtiHmFfTMvJAdYWo25cmI7zeor+eQsjg/881UhOcB2yJrvM+UsF1aBflyBdrbSPvip0qHmVQE3FXCfH27Ycp5VORXRk1k3V0Edt0M9XxVx8yh6Mutm5tk8OU5BOdUH0ZNZN4epLKfnVQE5I3BfH7quvy458L5baT6nchZ5VUTOvei5rJ0zduWEaR6VThE50PaA6IdodQxqXpF9vMKojKBtczTtk5tyQ8urAnLAJXl4LndTbmgtmaQjDbyw0pJvnr8uB+KbQO3S54U5yiuGlQV74N4uhRy67MqJ84rr5hW4kxVijHdkWl7x5YwAPibV0GPbdcgB2XI0bVAgrwzuotqDtwVEFApzbuUA3OVEnPn1tJ58XulbvJbzWfQsNsTMZcsJ84orZw/al4eEsctpybrDlbMlehIb45KbVzw5YFeVpk17dfbCckyOHJDb4wXveS3Z5KwqqFmF4B0hHJtUOVtL9mDuABfUOfeBHDkA77kwsrvkrBxrKycEA3A7jvDTXSebV1a+WjCAHh2WDNhdZ5soJSkcmAdyDJvZdZhyIOd4zMxjdR2WHPiFk3qMsuo6ydmqyiocqMcqjKlHl+Mw5MhQOJp27OflJHoqjMIBHlUxq0sv7EefsRyHLgf6HidhkHrrjy8sh7y/iQC9OcZIzp95OTQzO7BPVTh9j9KSnR3aogL3movOwCPLuaXKkaIbL8Bf65jLnmxeU+TIs6gQQ4IcXTdvyHJkWlSIQ4/QkoPjR7IcaE/Webz18nIm/3whLqp70YN9cW58Py3HNIOvD6Ocmp09SbZ/OMPbnJzJN4Ic2RpOTD/ItuTg+8dRtiWPHmXZGqeZejk5X/NywN9wUZj10gsr+PFttJNGwmacEO6UcTm3T98zcuTa/WW48nA510+dna2UG3g/c3gOd95KTnD89PQFlyNjiKe4W/27YvC18/R5pNxg3HlLOf89dbCmo9xoSd+JkrzTaT+qfpNi4MVy7E4oJ1lXUucUzsyL/p/9w1No50ckZ2t0L3pQpeHQ803TP0Zy9sNN8s7oUdZ9MYmuHaCwQutq/2G09yDneYrG8NpD/bjTbrd3P6pWnOX8Niqc9v6+bPd+RegkckQPpIyMYzltVTgEhovKET2OctKO+7HoYZSTXeRmX8khMlRZxUDJYYBW1b7aHJPZV3Lo7IZuVJJTGCM5qnLIIDm7Sg6ZYehGbXMoKDkMhm0lh8owdKPk0EByVEOmoOQwUMuKgZLDYjzeVadyhUKhUGT5H4jPToOIEq4eAAAAAElFTkSuQmCC;" vertex="1" parent="1">
          <mxGeometry x="760" y="370" width="48.14" height="30" as="geometry" />
        </mxCell>
        <mxCell id="I24HHL51fHuHuO_ZdVs8-12" value="" style="endArrow=classic;html=1;rounded=0;" edge="1" parent="1" source="I24HHL51fHuHuO_ZdVs8-3">
          <mxGeometry width="50" height="50" relative="1" as="geometry">
            <mxPoint x="390" y="410" as="sourcePoint" />
            <mxPoint x="190" y="350" as="targetPoint" />
          </mxGeometry>
        </mxCell>
        <mxCell id="I24HHL51fHuHuO_ZdVs8-13" value="" style="endArrow=classic;html=1;rounded=0;exitX=1;exitY=0.5;exitDx=0;exitDy=0;" edge="1" parent="1" source="I24HHL51fHuHuO_ZdVs8-4">
          <mxGeometry width="50" height="50" relative="1" as="geometry">
            <mxPoint x="390" y="410" as="sourcePoint" />
            <mxPoint x="330" y="350" as="targetPoint" />
          </mxGeometry>
        </mxCell>
        <mxCell id="I24HHL51fHuHuO_ZdVs8-14" value="" style="endArrow=classic;html=1;rounded=0;exitX=1;exitY=0.5;exitDx=0;exitDy=0;entryX=0;entryY=0.5;entryDx=0;entryDy=0;" edge="1" parent="1" source="I24HHL51fHuHuO_ZdVs8-1" target="I24HHL51fHuHuO_ZdVs8-8">
          <mxGeometry width="50" height="50" relative="1" as="geometry">
            <mxPoint x="390" y="410" as="sourcePoint" />
            <mxPoint x="440" y="360" as="targetPoint" />
          </mxGeometry>
        </mxCell>
        <mxCell id="I24HHL51fHuHuO_ZdVs8-15" value="" style="endArrow=classic;html=1;rounded=0;exitX=1;exitY=0.5;exitDx=0;exitDy=0;entryX=0;entryY=0.5;entryDx=0;entryDy=0;entryPerimeter=0;" edge="1" parent="1" source="I24HHL51fHuHuO_ZdVs8-8" target="I24HHL51fHuHuO_ZdVs8-10">
          <mxGeometry width="50" height="50" relative="1" as="geometry">
            <mxPoint x="390" y="410" as="sourcePoint" />
            <mxPoint x="440" y="360" as="targetPoint" />
          </mxGeometry>
        </mxCell>
      </root>
    </mxGraphModel>
  </diagram>
</mxfile>
